<svg width="100%" viewBox="0 0 680 575" xmlns="http://www.w3.org/2000/svg">
<defs>
  <marker id="arrow" viewBox="0 0 10 10" refX="8" refY="5" markerWidth="6" markerHeight="6" orient="auto-start-reverse">
    <path d="M2 1L8 5L2 9" fill="none" stroke="context-stroke" stroke-width="1.5" stroke-linecap="round" stroke-linejoin="round"/>
  </marker>
</defs>

<!-- INTERNET (CLOUD SHAPE) -->
<g class="c-blue">
  <rect x="266" y="74" width="148" height="44" rx="10" stroke-width="0.5"/>
  <circle cx="298" cy="75" r="19" style="stroke:none"/>
  <circle cx="328" cy="63" r="24" style="stroke:none"/>
  <circle cx="360" cy="68" r="20" style="stroke:none"/>
  <circle cx="388" cy="77" r="14" style="stroke:none"/>
  <text class="th" x="340" y="88" text-anchor="middle" dominant-baseline="central">Internet</text>
  <text class="ts" x="340" y="107" text-anchor="middle" dominant-baseline="central">(Awan / Cloud)</text>
</g>

<!-- Solid line: Cloud → Smartphone (Seluler) -->
<line x1="340" y1="118" x2="340" y2="242" style="stroke:var(--color-border-primary)" stroke-width="2"/>
<text class="ts" x="350" y="183" text-anchor="start">Seluler</text>

<!-- SMARTPHONE (Router/Gateway/AP) -->
<g class="c-teal">
  <rect x="316" y="242" width="48" height="86" rx="13" stroke-width="0.5"/>
</g>
<rect x="322" y="249" width="36" height="65" rx="5" style="fill:#9FE1CB;fill-opacity:0.35;stroke:none"/>
<circle cx="340" cy="322" r="5" style="fill:#5DCAA5;opacity:0.65;stroke:none"/>

<!-- WiFi signal arcs — kiri -->
<path d="M312 274 Q296 262 283 274" fill="none" stroke="#0F6E56" stroke-width="1.8" stroke-linecap="round" opacity="0.9"/>
<path d="M309 265 Q286 250 270 265" fill="none" stroke="#0F6E56" stroke-width="1.5" stroke-linecap="round" opacity="0.58"/>
<path d="M306 257 Q278 238 256 257" fill="none" stroke="#0F6E56" stroke-width="1.2" stroke-linecap="round" opacity="0.3"/>

<!-- WiFi signal arcs — kanan -->
<path d="M368 274 Q384 262 397 274" fill="none" stroke="#0F6E56" stroke-width="1.8" stroke-linecap="round" opacity="0.9"/>
<path d="M371 265 Q394 250 410 265" fill="none" stroke="#0F6E56" stroke-width="1.5" stroke-linecap="round" opacity="0.58"/>
<path d="M374 257 Q402 238 424 257" fill="none" stroke="#0F6E56" stroke-width="1.2" stroke-linecap="round" opacity="0.3"/>

<!-- Label Smartphone -->
<text class="th" x="340" y="346" text-anchor="middle">Smartphone</text>
<text class="ts" x="340" y="363" text-anchor="middle">(Router / Gateway / AP)</text>
<text class="ts" x="340" y="379" text-anchor="middle">IP: 10.133.47.42</text>

<!-- Dashed lines — Wireless ke Laptop -->
<line x1="330" y1="328" x2="155" y2="412" style="stroke:var(--color-border-primary)" stroke-width="1.5" stroke-dasharray="8 5"/>
<line x1="350" y1="328" x2="524" y2="412" style="stroke:var(--color-border-primary)" stroke-width="1.5" stroke-dasharray="8 5"/>

<!-- Label Wireless -->
<text class="ts" x="226" y="355" text-anchor="middle">Wireless</text>
<text class="ts" x="454" y="355" text-anchor="middle">Wireless</text>

<!-- LAPTOP 1 — Praktikan / Client 1 -->
<g class="c-purple">
  <rect x="105" y="412" width="100" height="62" rx="6" stroke-width="0.5"/>
  <rect x="98" y="474" width="114" height="10" rx="3" stroke-width="0.3"/>
</g>
<rect x="111" y="418" width="88" height="50" rx="4" style="fill:#AFA9EC;fill-opacity:0.3;stroke:none"/>
<rect x="96" y="484" width="118" height="4" rx="2" style="fill:var(--color-border-secondary);stroke:none"/>
<text class="th" x="155" y="506" text-anchor="middle">Laptop Praktikan</text>
<text class="ts" x="155" y="522" text-anchor="middle">(Client 1)</text>
<text class="ts" x="155" y="538" text-anchor="middle">IP: 10.133.47.149</text>

<!-- LAPTOP 2 — Target / Client 2 -->
<g class="c-coral">
  <rect x="474" y="412" width="100" height="62" rx="6" stroke-width="0.5"/>
  <rect x="467" y="474" width="114" height="10" rx="3" stroke-width="0.3"/>
</g>
<rect x="480" y="418" width="88" height="50" rx="4" style="fill:#F0997B;fill-opacity:0.3;stroke:none"/>
<rect x="465" y="484" width="118" height="4" rx="2" style="fill:var(--color-border-secondary);stroke:none"/>
<text class="th" x="524" y="506" text-anchor="middle">Laptop Target</text>
<text class="ts" x="524" y="522" text-anchor="middle">(Client 2)</text>
<text class="ts" x="524" y="538" text-anchor="middle">IP: 10.133.47.23</text>

<!-- Judul diagram -->
<text class="ts" x="340" y="562" text-anchor="middle" style="fill:var(--color-text-tertiary)">Topologi Bintang (Star Topology) — Jaringan Nirkabel</text>
</svg>